<?xml version="1.0" standalone="no"?>
<!DOCTYPE svg PUBLIC "-//W3C//DTD SVG 20010904//EN"
 "http://www.w3.org/TR/2001/REC-SVG-20010904/DTD/svg10.dtd">
<svg version="1.0" xmlns="http://www.w3.org/2000/svg"
 width="920.000000pt" height="565.000000pt" viewBox="0 0 920.000000 565.000000"
 preserveAspectRatio="xMidYMid meet">

<g transform="translate(0.000000,565.000000) scale(0.100000,-0.100000)"
fill="#000000" stroke="none">
<path d="M177 5240 c-50 -58 -87 -108 -85 -118 2 -9 26 -33 53 -54 59 -45 62
-50 33 -63 -32 -15 -32 -30 -1 -44 23 -11 29 -10 39 4 7 9 10 23 7 31 -3 8 -2
14 2 14 6 0 149 -87 258 -157 l39 -24 -26 -24 c-14 -13 -32 -47 -41 -81 -9
-33 -36 -111 -59 -174 -24 -63 -51 -141 -60 -173 -9 -32 -32 -86 -50 -120 -43
-78 -76 -210 -76 -300 0 -39 9 -109 20 -156 11 -47 22 -103 25 -124 7 -47 30
-47 60 0 17 28 26 32 61 33 22 0 66 9 96 19 48 17 59 17 79 5 47 -27 64 -32
80 -23 13 6 23 -1 42 -30 15 -22 36 -42 47 -46 23 -7 24 -2 -18 -127 -14 -43
-29 -78 -34 -78 -4 0 -8 -9 -8 -19 0 -11 -5 -23 -11 -27 -7 -4 -9 -22 -6 -47
4 -30 15 -49 42 -74 l36 -33 -23 -42 c-12 -24 -34 -77 -48 -118 -15 -41 -41
-113 -59 -159 -17 -46 -60 -212 -95 -370 -68 -303 -79 -362 -96 -506 -6 -49
-22 -146 -35 -215 -13 -69 -29 -186 -35 -260 -14 -175 -15 -180 -71 -346 -52
-152 -74 -254 -114 -519 -14 -93 -35 -197 -45 -229 -25 -74 -25 -79 0 -71 11
3 39 -3 64 -14 43 -19 45 -21 40 -55 -2 -20 -6 -52 -8 -71 -3 -19 -2 -35 0
-35 3 0 17 13 31 30 23 28 30 30 91 30 37 1 84 7 105 14 37 14 37 13 37 -13 0
-19 -16 -42 -58 -82 -65 -63 -135 -119 -149 -119 -14 0 -63 -47 -63 -60 0 -17
262 -13 358 6 94 19 107 32 91 85 -12 41 -15 181 -4 198 4 8 20 11 37 9 24 -4
35 2 66 37 32 35 41 40 67 35 27 -4 31 -10 39 -52 8 -41 12 -47 30 -43 12 3
32 0 45 -7 22 -12 33 -8 107 28 46 23 86 39 89 35 4 -3 19 -6 35 -7 15 -1 44
-13 63 -28 38 -29 62 -33 70 -11 14 36 129 71 193 59 l36 -7 -6 -81 c-3 -44
-12 -117 -20 -161 -7 -43 -12 -85 -9 -92 4 -9 33 -13 104 -13 54 0 99 2 99 5
0 3 -6 21 -14 40 -21 48 -46 192 -43 245 1 36 7 50 34 73 26 23 33 37 35 75
l3 46 42 1 c33 1 49 9 81 37 22 20 50 41 61 48 19 10 20 13 7 33 -18 29 -76
200 -76 224 0 11 -13 87 -29 169 -17 82 -35 199 -41 259 -14 143 -29 227 -52
294 -10 30 -18 56 -18 58 0 3 30 -23 68 -57 37 -34 135 -104 218 -156 83 -52
157 -101 164 -109 14 -17 30 -20 30 -5 0 5 12 35 26 67 l26 58 26 -31 c15 -16
49 -47 75 -69 40 -32 87 -93 75 -98 -112 -55 -190 -122 -227 -196 l-22 -42 32
-59 c17 -33 35 -60 39 -60 4 0 10 22 12 49 7 68 56 167 116 230 28 30 54 53
57 50 2 -3 0 -21 -5 -40 -17 -55 -25 -229 -12 -229 7 0 12 3 12 8 0 4 13 22
29 39 27 29 28 35 20 80 -5 26 -5 68 -1 93 l7 44 55 -84 c60 -94 71 -138 74
-297 1 -70 -2 -85 -20 -105 -19 -20 -22 -36 -23 -110 -1 -99 7 -111 84 -123
l40 -7 -6 -71 c-7 -77 -44 -207 -59 -207 -11 0 -29 -57 -29 -90 0 -14 -3 -37
-6 -53 l-7 -27 186 0 186 0 1 48 c2 67 -2 94 -14 117 -6 11 -13 89 -15 175 -5
207 -4 225 12 295 12 55 81 311 92 345 7 21 45 -27 83 -105 l30 -60 79 -23
c43 -12 85 -22 92 -22 19 0 -96 116 -190 192 -41 34 -75 65 -74 70 1 4 2 13 3
18 4 32 111 -17 221 -100 88 -67 166 -107 219 -112 31 -3 35 1 63 50 l30 52
-74 0 c-95 0 -169 20 -271 72 -45 23 -101 51 -124 62 -23 12 -42 26 -43 33 0
6 23 38 51 70 81 93 99 136 99 243 0 55 7 117 19 162 10 40 22 91 27 113 9 38
12 41 72 62 35 13 68 20 73 17 5 -3 23 -33 40 -67 17 -34 56 -99 85 -145 l54
-83 33 26 c87 72 254 277 272 335 4 14 21 41 36 60 24 30 109 197 109 213 0 3
-77 45 -171 93 -93 48 -175 96 -180 106 -6 10 -37 50 -71 89 -56 66 -61 75
-69 137 -13 104 -16 98 59 136 78 39 172 110 172 129 0 17 34 47 83 75 24 14
37 17 37 9 0 -7 4 -50 10 -96 5 -46 7 -88 4 -93 -13 -20 -10 -173 3 -183 9 -7
14 -53 16 -154 3 -163 -5 -149 97 -170 113 -24 116 -24 139 0 11 12 24 20 28
16 3 -4 -8 -80 -25 -169 -33 -169 -46 -263 -58 -408 -4 -59 -14 -99 -30 -132
-20 -39 -23 -60 -22 -125 4 -121 -25 -306 -61 -388 -34 -79 -32 -86 41 -127
44 -25 43 -21 28 -197 -6 -64 -15 -165 -20 -224 -6 -72 -6 -115 0 -128 8 -14
6 -20 -10 -29 -12 -6 -19 -17 -17 -23 2 -6 -20 -48 -49 -92 -28 -45 -61 -100
-73 -123 l-21 -42 220 0 c265 0 250 -8 274 136 10 55 22 113 28 129 10 29 71
360 84 458 6 42 13 54 61 95 l54 47 14 173 c9 108 20 183 30 202 9 16 15 55
15 90 0 34 6 73 14 88 7 15 32 160 56 322 47 336 53 366 57 300 11 -180 26
-349 40 -429 12 -73 13 -102 4 -131 -16 -53 -14 -68 11 -102 25 -36 26 -45 37
-343 4 -126 9 -231 9 -232 1 0 21 -12 45 -26 l43 -25 37 -197 c21 -108 35
-201 31 -206 -3 -6 -1 -22 4 -37 21 -56 24 -69 28 -142 5 -100 16 -122 70
-148 41 -20 60 -22 224 -22 122 0 180 3 180 11 0 6 -15 34 -34 62 -19 29 -51
89 -71 135 -31 67 -36 87 -28 105 10 21 -8 375 -22 433 -3 15 10 37 48 80 84
95 81 88 61 126 -9 18 -26 45 -37 60 -17 22 -20 42 -19 125 0 58 -6 117 -14
144 -13 42 -13 54 6 133 18 76 18 90 6 114 -8 15 -17 54 -21 87 -23 208 -39
311 -61 397 -38 150 -43 143 104 145 69 2 130 7 137 13 6 5 22 76 35 157 18
117 27 151 43 164 15 12 17 20 9 35 -10 20 -2 109 12 132 4 7 2 19 -4 27 -9
11 -10 37 -1 112 18 158 16 233 -9 308 -15 46 -20 77 -15 102 10 54 6 292 -6
338 -6 22 -10 66 -10 98 0 66 -20 131 -51 165 -12 12 -22 34 -23 49 0 24 -10
30 -140 79 -77 30 -145 54 -151 54 -6 0 -17 7 -25 16 -9 11 -22 14 -45 9 -28
-5 -44 2 -108 46 -65 44 -76 55 -76 80 0 28 1 29 54 29 29 0 75 3 101 7 l48 6
-44 22 -43 22 55 16 c29 9 83 24 119 33 36 10 69 21 74 25 4 4 -26 15 -68 24
-42 10 -75 22 -73 28 1 5 74 49 160 96 86 47 157 89 157 94 0 4 -44 7 -97 8
-143 1 -146 4 -68 69 35 30 65 58 65 61 0 4 -19 5 -42 2 -163 -15 -218 -18
-218 -11 0 5 -11 6 -24 2 -21 -5 -28 0 -45 34 -24 47 -71 88 -128 113 -24 10
-43 20 -43 21 0 2 9 27 20 55 11 29 22 83 24 120 2 38 2 55 0 38 -9 -62 -36
-175 -43 -180 -5 -2 -11 21 -15 53 -18 151 -57 221 -155 270 -61 30 -187 69
-196 60 -3 -3 6 -41 20 -84 16 -48 29 -114 32 -166 6 -90 0 -105 -28 -71 -23
27 -117 93 -162 114 -61 27 -125 24 -215 -11 -84 -34 -203 -99 -209 -115 -1
-6 26 -25 62 -44 36 -18 93 -58 127 -89 64 -57 158 -166 158 -183 0 -5 -19 1
-42 15 -73 42 -142 64 -219 70 l-74 6 89 -15 c87 -14 235 -75 243 -100 2 -5
-25 -18 -60 -28 -66 -19 -257 -106 -257 -117 0 -4 57 -22 128 -40 116 -30 212
-66 212 -79 0 -4 -32 -23 -71 -44 -39 -21 -69 -40 -67 -42 2 -2 59 -8 128 -15
69 -6 144 -13 167 -16 l42 -6 -5 -47 c-4 -25 -13 -50 -22 -56 -8 -5 -37 -25
-64 -42 -42 -28 -56 -32 -88 -27 -32 5 -40 3 -49 -15 -8 -13 -21 -21 -39 -21
-15 0 -82 -18 -150 -41 l-123 -41 2 -38 c2 -25 -3 -45 -14 -57 -9 -10 -28 -44
-41 -76 -14 -31 -30 -57 -35 -57 -21 0 -21 -35 0 -51 21 -16 21 -17 5 -81 -9
-35 -16 -74 -16 -85 0 -12 -7 -49 -16 -84 -12 -45 -14 -82 -9 -139 4 -51 3
-85 -4 -98 -11 -21 -12 -20 -89 15 -92 43 -100 49 -84 65 7 7 12 19 12 28 0
10 17 25 40 35 27 12 40 24 38 34 -4 17 -29 19 -88 7 l-35 -7 -37 70 c-34 66
-40 103 -17 117 16 10 9 35 -27 97 -20 34 -38 74 -40 90 -3 23 -60 133 -113
217 -8 14 -17 36 -19 49 -2 13 -14 38 -28 56 -13 17 -24 37 -24 43 0 5 -18 28
-41 49 -22 21 -78 101 -124 178 -119 201 -111 182 -80 215 l26 27 -28 6 c-16
3 -41 17 -57 32 l-28 26 41 44 c23 25 41 48 41 53 0 4 -31 6 -70 4 -38 -2 -70
0 -70 5 0 5 14 17 31 27 41 24 31 30 -22 12 -60 -21 -61 -21 -34 27 12 23 26
52 30 65 7 23 7 23 -25 7 -17 -9 -56 -20 -87 -25 -30 -5 -64 -12 -75 -16 -17
-5 -18 -3 -9 15 17 31 -1 26 -20 -6 -16 -25 -16 -23 -11 47 l5 74 -66 -58
c-36 -32 -69 -66 -73 -75 -5 -13 -8 -11 -13 9 -6 23 -8 22 -26 -22 -11 -27
-22 -48 -25 -48 -10 0 -29 38 -40 80 -14 50 -29 43 -37 -19 -5 -40 -23 -58
-23 -24 0 9 -3 13 -7 9 -4 -3 -6 -24 -5 -46 3 -44 1 -45 -60 -31 -21 5 -38 6
-38 2 0 -4 14 -26 31 -49 l30 -41 -53 -30 c-29 -17 -56 -31 -60 -31 -5 0 -8
-4 -8 -9 0 -5 26 -18 58 -29 l57 -19 -52 -53 c-29 -29 -50 -56 -47 -61 2 -4
21 -11 40 -15 24 -4 33 -11 30 -20 -21 -50 -21 -49 9 -26 40 32 44 19 7 -27
-38 -47 -39 -54 -9 -46 12 4 30 9 39 11 24 7 33 -32 14 -61 -16 -24 -15 -25 5
-25 17 0 19 -3 10 -14 -6 -7 -8 -26 -5 -43 4 -20 1 -33 -10 -42 -9 -8 -16 -19
-16 -25 0 -6 -22 -30 -49 -53 -37 -32 -58 -43 -83 -43 -41 0 -106 -30 -135
-61 -44 -49 -55 -121 -28 -186 9 -20 13 -43 10 -50 -2 -8 16 -60 40 -116 29
-64 66 -181 100 -313 47 -182 55 -225 55 -303 0 -81 -3 -99 -31 -159 -17 -37
-36 -83 -43 -102 -6 -19 -50 -109 -98 -200 -88 -168 -182 -368 -193 -412 -4
-14 -38 -59 -76 -102 -38 -42 -111 -125 -161 -184 -50 -59 -95 -108 -99 -110
-4 -2 -10 21 -14 50 -12 102 -37 214 -71 318 -41 129 -72 261 -85 360 -5 41
-11 82 -14 91 -4 12 1 15 24 11 30 -4 43 3 88 48 50 50 55 70 39 167 -8 48
-17 115 -20 148 -6 58 -5 60 21 73 15 6 32 12 38 12 7 0 39 18 73 39 70 46
117 112 168 236 17 44 41 100 53 125 28 60 27 102 -3 137 l-25 29 22 0 c18 -1
21 4 19 24 -2 19 8 34 40 62 40 34 42 38 26 54 -15 15 -20 15 -71 -15 l-55
-31 -62 70 -63 71 6 51 6 50 -64 76 c-36 42 -65 82 -65 90 0 16 -163 208 -192
226 -10 6 -18 17 -18 24 0 7 -6 21 -12 33 -20 32 -123 136 -115 117 16 -44
-27 -11 -102 76 -59 68 -81 101 -81 122 0 27 0 27 21 8 20 -18 20 -18 13 11
-4 17 -11 39 -17 50 -9 18 -9 19 6 6 21 -17 22 -2 2 25 -21 28 -18 34 15 34
37 0 39 13 5 28 -14 7 -25 18 -24 24 5 37 -3 56 -28 67 l-27 12 30 25 29 25
-31 -6 c-17 -3 -44 -3 -58 1 l-27 6 23 26 c20 22 21 24 3 15 -11 -6 -47 -14
-80 -18 l-60 -7 29 31 c35 36 27 40 -22 9 -33 -21 -35 -21 -28 -3 6 17 4 17
-17 -3 -31 -30 -43 -28 -22 4 16 25 16 25 -4 14 -12 -6 -21 -16 -21 -23 0 -7
-4 -6 -10 3 -8 13 -10 13 -10 0 0 -15 -76 -90 -91 -90 -5 0 -9 5 -9 12 0 6 -3
9 -6 5 -4 -3 -30 12 -59 34 -28 21 -57 39 -64 39 -6 0 -20 19 -31 43 -23 51
-268 321 -295 325 -14 2 -45 -26 -108 -98z m33 -255 c0 -8 -9 -15 -20 -15 -20
0 -26 11 -13 23 12 13 33 7 33 -8z m464 -317 c-3 -5 -42 -27 -86 -49 -75 -38
-79 -39 -73 -17 21 65 44 96 82 105 32 8 41 7 60 -10 12 -11 20 -24 17 -29z
m67 -135 l1 -28 8 25 c7 23 8 23 9 3 1 -12 19 -43 42 -69 23 -26 53 -65 67
-87 25 -38 26 -40 7 -53 -22 -17 -38 -17 -84 -4 -26 7 -41 5 -71 -9 -22 -11
-50 -16 -65 -13 -21 3 -27 0 -32 -17 -6 -23 -29 -29 -36 -8 -3 9 -9 8 -23 -4
-10 -9 -31 -19 -46 -23 -39 -9 -51 34 -38 144 5 47 10 91 10 98 0 20 17 14 23
-8 5 -21 41 -28 52 -10 6 10 153 89 168 90 4 0 7 -12 8 -27z m62 -33 c3 -11 1
-18 -4 -14 -5 3 -9 12 -9 20 0 20 7 17 13 -6z m2433 -555 c1 -11 5 -29 9 -40
l8 -20 -21 20 c-11 11 -23 31 -27 43 -6 20 -4 23 12 20 10 -2 19 -12 19 -23z
m-1537 -75 c29 -33 51 -65 49 -71 -4 -12 -118 106 -118 122 0 20 19 6 69 -51z
m1 -105 c0 -6 6 -17 12 -23 7 -7 13 -20 13 -30 0 -11 7 -16 21 -15 15 2 38
-17 78 -62 68 -77 72 -100 17 -109 -57 -9 -101 2 -101 26 0 10 -21 56 -47 101
-27 45 -58 113 -70 151 l-22 69 50 -49 c27 -26 49 -53 49 -59z m1769 -136 c40
-14 109 -137 102 -181 -1 -12 4 -18 17 -18 13 0 31 -20 56 -61 42 -70 38 -94
-8 -51 -17 16 -61 50 -97 75 -37 26 -85 67 -108 92 -37 41 -41 49 -41 98 0 29
-7 79 -15 110 -8 32 -15 61 -15 64 0 3 19 -23 42 -57 24 -37 52 -66 67 -71z
m141 -102 c0 -17 -23 11 -54 64 -14 25 -23 49 -19 52 7 8 73 -97 73 -116z
m-2260 -210 c-14 -68 -12 -113 6 -128 13 -10 15 -25 10 -74 -3 -36 0 -82 7
-115 12 -49 17 -56 43 -61 58 -11 94 -31 100 -56 10 -40 -3 -103 -26 -128 -12
-13 -24 -41 -27 -64 -3 -23 -8 -41 -12 -41 -3 0 -16 41 -29 90 -17 71 -32 103
-67 151 -25 33 -50 80 -56 102 -6 23 -27 76 -46 117 -38 81 -44 141 -18 170 8
9 15 26 15 38 0 11 7 25 16 30 12 7 15 18 11 38 -6 33 7 64 27 64 10 0 14 14
13 48 0 29 7 61 19 82 l19 35 3 -125 c1 -69 -2 -146 -8 -173z m625 273 c-3 -5
-10 -10 -16 -10 -5 0 -9 5 -9 10 0 6 7 10 16 10 8 0 12 -4 9 -10z m1785 -280
c0 -5 -5 -10 -11 -10 -5 0 -7 5 -4 10 3 6 8 10 11 10 2 0 4 -4 4 -10z m1524
-47 c3 -27 19 -70 35 -96 28 -48 28 -50 15 -110 -19 -89 -17 -118 13 -216 14
-47 27 -107 28 -133 1 -27 5 -51 8 -55 10 -10 8 -86 -2 -102 -6 -10 -5 -22 4
-34 13 -18 11 -24 -16 -58 -16 -21 -37 -59 -46 -84 -8 -26 -19 -43 -23 -38 -3
4 -14 53 -24 108 -33 198 -68 339 -93 378 -13 22 -22 46 -19 54 4 9 2 21 -3
27 -5 6 -5 36 -1 66 4 30 5 69 3 87 -5 29 -2 33 46 57 28 15 51 31 51 36 0 5
-10 29 -22 54 l-21 44 24 31 c13 16 27 30 30 30 4 1 9 -20 13 -46z m-987 -62
c-26 -44 -21 -61 22 -79 l39 -17 -2 -58 c-1 -32 2 -61 7 -64 4 -2 4 -10 -1
-16 -5 -7 -9 -30 -8 -52 2 -29 -7 -57 -30 -100 -33 -60 -84 -221 -124 -394
-18 -77 -24 -90 -36 -80 -8 6 -14 27 -14 47 0 20 -11 54 -26 79 -21 36 -23 47
-13 59 7 8 14 40 15 71 2 34 10 63 20 74 13 15 14 22 5 33 -10 11 -7 32 14 98
33 107 41 183 26 257 -11 57 -11 61 18 118 16 32 33 71 37 86 l7 29 31 -31
c30 -31 30 -31 13 -60z m-1094 -8 c15 -20 27 -48 27 -63 0 -15 9 -62 20 -106
31 -118 70 -301 70 -326 0 -19 -12 -11 -70 47 -77 76 -85 100 -55 172 23 54
19 101 -11 145 -25 35 -26 41 -15 84 9 33 9 50 2 57 -6 6 -11 15 -11 19 0 17
16 6 43 -29z"/>
<path d="M6357 4967 c-3 -23 -9 -66 -12 -94 -4 -29 -10 -53 -13 -53 -4 0 -36
20 -71 45 -36 25 -66 43 -69 40 -2 -2 5 -16 17 -31 29 -37 27 -44 -14 -44 -40
0 -134 39 -163 68 l-20 20 -7 -26 c-4 -15 -5 -78 -4 -141 l4 -113 -55 -29 -55
-28 38 -1 c20 0 37 -4 37 -9 0 -9 -91 -96 -135 -128 l-30 -22 35 -1 c33 -1 34
-1 16 -15 -11 -8 -30 -15 -43 -15 -13 0 -23 -4 -23 -8 0 -4 34 -47 75 -94 l74
-87 -32 -26 c-30 -24 -30 -26 -7 -19 14 4 31 9 39 12 18 7 9 -25 -30 -102 -16
-33 -26 -63 -22 -67 10 -9 145 -49 166 -49 23 0 29 -15 17 -45 -10 -26 -9 -27
16 -21 25 7 25 6 19 -26 -6 -27 -30 -84 -40 -96 -2 -2 -20 4 -40 12 -21 9 -39
16 -41 16 -4 0 73 -129 108 -178 28 -40 29 -44 14 -66 -15 -24 -113 -89 -216
-142 l-55 -29 1 -60 c0 -33 4 -97 9 -143 8 -79 7 -84 -16 -108 -21 -22 -24
-37 -27 -107 -5 -158 -22 -258 -59 -350 -32 -82 -35 -98 -42 -246 -5 -87 -11
-164 -15 -170 -4 -7 -16 -59 -26 -116 -11 -57 -26 -120 -35 -141 -16 -38 -10
-53 23 -54 7 0 12 -15 12 -40 0 -27 4 -40 14 -40 17 0 25 -65 28 -218 1 -79 6
-116 15 -123 7 -7 13 -18 13 -26 0 -7 13 -40 29 -71 24 -45 32 -79 41 -162 36
-351 67 -609 105 -870 13 -91 27 -199 30 -240 l7 -75 128 -3 128 -4 6 194 c3
106 8 346 12 533 6 397 30 737 55 776 17 29 38 -16 80 -171 22 -85 54 -203 69
-261 l29 -106 -60 -62 c-33 -34 -59 -67 -57 -73 3 -7 40 -23 84 -37 43 -14 81
-26 82 -27 2 -2 23 -90 47 -196 23 -107 57 -243 74 -304 25 -88 50 -214 51
-256 0 -5 56 -8 125 -8 69 0 125 3 125 8 0 4 -6 36 -15 72 -17 77 -39 302 -61
638 -16 237 -14 275 14 258 15 -9 25 -106 12 -121 -9 -11 -7 -29 9 -77 11 -35
27 -107 36 -160 14 -82 20 -99 41 -113 22 -14 24 -22 24 -94 0 -61 -3 -80 -15
-85 -21 -8 -19 -26 4 -26 16 0 20 -11 26 -66 4 -44 3 -70 -4 -77 -14 -14 -14
-47 -1 -47 6 0 10 -7 10 -15 0 -19 36 -19 47 0 6 9 32 17 71 21 43 5 62 11 62
21 0 17 -9 20 -83 28 l-58 7 3 76 c3 74 4 77 35 97 32 20 32 21 33 100 0 46 5
86 11 92 8 8 9 44 3 125 -5 62 -7 120 -5 128 2 14 4 119 2 150 -1 12 -3 13
-10 1 -18 -28 -31 1 -31 67 0 37 -7 141 -14 232 l-14 164 -34 28 c-18 15 -41
28 -52 30 -13 2 -28 26 -48 78 -27 68 -29 79 -19 118 6 23 11 79 11 124 0 75
4 93 49 207 27 70 57 161 65 203 9 43 39 127 67 187 l50 111 -20 73 c-12 40
-21 88 -21 107 0 18 -8 51 -19 74 -19 43 -55 241 -46 255 3 5 -3 28 -12 52 -9
25 -17 75 -17 114 -1 62 -4 71 -23 80 -25 11 -33 41 -34 139 -2 119 -1 118
-109 142 -183 41 -262 72 -277 111 -4 9 1 46 10 82 12 44 14 68 7 75 -15 15
-12 68 5 90 14 18 26 18 68 1 15 -6 17 1 17 72 l0 80 60 47 c57 45 59 48 45
70 -18 27 -11 36 28 36 27 0 29 2 22 27 -3 15 -22 62 -42 105 -33 72 -35 80
-20 96 20 22 77 130 77 146 0 7 -22 11 -60 12 -33 0 -63 3 -66 7 -4 4 3 19 17
34 l24 26 -25 -7 c-80 -21 -75 -24 -72 43 3 39 -2 79 -14 113 -9 29 -19 49
-20 43 -2 -5 -8 -37 -15 -70 l-12 -60 -23 50 c-31 66 -98 150 -161 203 l-51
42 -5 -43z m436 -2127 c-4 -26 3 -64 22 -119 19 -59 25 -94 22 -124 -14 -110
-65 -317 -79 -317 -16 0 -32 125 -34 260 0 80 -4 157 -8 171 -5 17 1 54 19
113 25 83 28 87 45 71 13 -12 17 -26 13 -55z m40 -1627 c4 -19 2 -33 -3 -33
-6 0 -10 17 -10 37 0 43 5 41 13 -4z m217 -768 c0 -37 -4 -65 -10 -65 -5 0
-10 12 -10 28 0 15 -3 44 -6 65 -5 30 -4 37 10 37 13 0 16 -12 16 -65z m40
-295 c0 -5 -4 -10 -10 -10 -5 0 -10 5 -10 10 0 6 5 10 10 10 6 0 10 -4 10 -10z"/>
<path d="M7646 4849 c-5 -51 -11 -69 -20 -66 -7 3 -39 8 -70 12 l-58 8 32 -44
32 -44 -81 -25 c-45 -13 -81 -27 -81 -31 0 -3 18 -11 40 -18 22 -6 40 -15 40
-19 0 -4 -23 -28 -52 -54 l-53 -47 53 -1 c28 0 52 -2 52 -4 0 -22 -27 -69 -44
-76 -21 -8 -127 12 -173 33 -16 7 -35 4 -75 -11 -29 -12 -87 -24 -130 -27 -42
-4 -84 -12 -94 -20 -17 -12 -17 -18 -6 -72 7 -33 12 -66 12 -74 0 -8 -49 -72
-109 -143 -132 -154 -240 -304 -241 -331 0 -44 179 -124 321 -144 41 -6 112
-23 159 -39 47 -16 127 -39 178 -52 81 -20 96 -27 112 -52 28 -46 33 -157 14
-340 -15 -152 -19 -165 -45 -199 -40 -51 -37 -83 12 -148 l41 -55 -12 -52
c-10 -42 -10 -57 -1 -68 7 -8 8 -17 2 -20 -16 -10 -53 -148 -59 -218 -3 -48
-10 -72 -23 -84 -16 -14 -19 -32 -19 -108 0 -52 -7 -112 -15 -140 -19 -63 -19
-106 1 -134 15 -21 14 -22 -20 -22 -27 0 -36 -4 -37 -17 0 -10 -2 -105 -5
-211 l-5 -192 34 0 35 0 4 -57 c6 -59 -5 -434 -18 -653 l-7 -121 32 -12 c28
-10 31 -15 31 -54 0 -31 -4 -43 -14 -43 -20 0 -29 -34 -20 -73 9 -39 5 -138
-6 -152 -4 -5 -10 -35 -12 -66 -4 -50 -11 -64 -68 -140 -35 -46 -72 -92 -84
-101 -20 -17 -12 -18 176 -18 l196 0 7 77 c3 43 11 103 17 133 6 30 12 89 13
131 1 42 8 93 15 114 10 29 10 45 0 74 -6 20 -10 51 -8 70 2 28 8 35 38 45 32
10 36 15 42 61 20 150 41 374 44 475 3 97 8 129 34 204 25 72 31 108 34 192 2
57 8 109 13 116 6 7 13 50 16 96 5 65 13 97 37 143 22 44 28 65 21 78 -5 9 -6
22 -2 29 22 36 94 -82 185 -306 70 -169 73 -176 127 -269 31 -54 54 -109 61
-143 5 -30 41 -122 80 -205 69 -146 107 -272 108 -352 0 -26 6 -36 29 -48 34
-17 50 -67 30 -91 -10 -12 -10 -25 0 -63 7 -26 12 -79 11 -117 0 -38 0 -109 2
-159 1 -50 0 -116 -1 -148 -3 -58 6 -83 44 -121 14 -14 43 -16 198 -16 l182 1
-27 23 c-15 14 -42 48 -59 78 -18 29 -38 60 -45 68 -30 36 -53 120 -47 176 4
35 1 63 -7 78 -12 23 -11 44 5 137 5 26 2 39 -9 48 -24 20 -21 93 5 117 20 18
21 25 14 144 -3 69 -11 154 -16 190 -11 72 -103 356 -124 380 -7 8 -16 44 -20
80 -4 36 -13 72 -21 81 -9 10 -17 63 -24 156 -13 186 -27 279 -55 377 -13 44
-31 121 -40 170 -9 49 -22 107 -30 130 -16 51 -26 161 -15 173 5 4 12 44 16
88 6 70 11 83 36 106 24 23 28 35 28 82 0 30 -9 84 -20 119 -18 57 -18 68 -5
110 13 45 28 136 61 372 19 141 41 195 92 222 20 10 61 39 92 64 30 25 93 67
140 94 46 27 112 70 146 95 35 25 77 55 95 66 54 33 57 46 25 112 -16 32 -48
81 -70 108 -23 28 -59 73 -80 101 -21 28 -72 80 -113 114 -48 41 -71 66 -64
73 15 15 183 15 188 0 7 -19 30 -15 36 6 3 15 18 19 83 25 53 5 80 4 82 -3 5
-16 41 -13 58 3 16 17 19 52 4 61 -5 3 -10 33 -10 66 0 55 -1 59 -23 59 -22 0
-25 -6 -33 -67 l-9 -68 -75 -5 c-96 -7 -105 -5 -131 37 l-22 35 -94 -5 c-56
-2 -96 0 -100 6 -4 6 -54 7 -142 3 -75 -4 -143 -7 -151 -7 -18 1 -158 0 -182
-2 -26 -2 -22 -17 5 -18 20 -1 19 -2 -8 -14 -35 -16 -93 -19 -115 -5 -12 8 -9
15 18 43 19 19 30 37 25 40 -4 2 -36 8 -70 12 -35 4 -63 11 -63 16 0 6 9 28
21 50 11 23 18 43 15 46 -6 6 -70 -14 -119 -39 -42 -21 -39 -24 -61 54 -7 23
-18 44 -24 46 -6 2 -29 -22 -53 -53 -41 -54 -42 -55 -61 -38 -11 10 -29 35
-39 56 -11 20 -23 37 -28 37 -5 0 -12 -32 -15 -71z m1510 -196 c-10 -10 -19 5
-10 18 6 11 8 11 12 0 2 -7 1 -15 -2 -18z m-272 -32 c11 -18 -122 -29 -161
-14 -14 6 -8 9 22 14 63 10 133 10 139 0z m-407 -211 c7 -10 42 -42 78 -71 37
-30 84 -80 106 -112 21 -33 39 -61 39 -62 0 -2 -15 -7 -32 -10 -44 -10 -88
-32 -119 -62 -23 -21 -29 -22 -52 -12 -23 10 -30 9 -47 -6 -20 -19 -22 -19
-56 0 -75 40 -172 173 -207 284 -10 30 -14 58 -10 62 13 13 63 16 178 11 90
-3 112 -7 122 -22z m-912 -110 c3 -5 0 -18 -6 -28 -17 -27 -4 -66 37 -112 27
-30 38 -52 42 -86 3 -26 8 -40 12 -34 13 21 30 0 30 -36 0 -27 -5 -36 -22 -42
-27 -9 -281 -6 -322 4 -20 5 -40 1 -62 -11 -30 -16 -36 -16 -71 -3 -21 9 -55
18 -76 22 l-38 7 22 30 c12 17 36 40 55 52 19 12 34 29 34 37 0 15 78 100 92
100 4 0 59 25 120 55 113 55 142 63 153 45z m569 -223 c20 -26 34 -51 32 -56
-3 -4 -21 -5 -40 -3 -34 4 -36 6 -36 43 0 25 -6 41 -16 47 -9 5 -14 15 -10 21
10 16 29 3 70 -52z"/>
<path d="M5270 4370 c-21 -5 -3 -6 45 -3 44 3 82 7 84 9 8 7 -93 2 -129 -6z"/>
</g>
</svg>
